<?xml version="1.0" encoding="utf-8"?>
<!-- Generator: Adobe Illustrator 23.0.2, SVG Export Plug-In . SVG Version: 6.00 Build 0)  -->
<svg version="1.1" id="Layer_1" xmlns="http://www.w3.org/2000/svg" xmlns:xlink="http://www.w3.org/1999/xlink" x="0px" y="0px"
	 viewBox="0 0 790.28 76.93" style="enable-background:new 0 0 790.28 76.93;" xml:space="preserve">
<style type="text/css">
	.st0{fill:#1864AB;}
</style>
<polygon class="st0" points="133.65,71.62 31.83,77.58 31.83,65.58 105.8,44.93 15.49,44.93 15.46,32.83 110.31,12.28 0,6.14 
	0,6.14 169.24,0.01 169.24,12.11 74.38,32.66 152.67,32.66 152.66,44.66 78.7,65.31 133.66,71.47 "/>
<g>
	<path class="st0" d="M268,14.29c-1.59-7.24-7.63-13.17-14.05-13.79c-3.82-0.36-7.71-0.4-11.48-0.43c-1.26-0.01-2.51-0.02-3.81-0.05
		c-1.43,0-4.4,0-4.96,2.3c-0.77,3.39,0.03,6.75,0.81,10c0.48,2.02,0.94,3.94,1.02,5.81c0.6,12.18,0.8,22.05,0.62,31.05
		c-0.11,3.86-0.62,7.81-1.17,11.99c-0.49,3.78-1.01,7.68-1.21,11.61l-0.01,0.16l0.02,0.15c0.32,2.35,3.49,2.35,5.81,2.35
		c0.86,0,5.51-0.56,5.51-3.1c-0.1-3.14-0.35-6.35-0.6-9.44c-0.29-3.54-0.58-7.2-0.63-10.75c0-0.6-0.01-1.22-0.02-1.85
		c-0.06-3.24-0.13-6.91,1.49-8.83c2.29-2.8,5.29-5.11,8.47-7.55c2.38-1.83,4.84-3.72,7-5.85c0.42-0.41,0.87-0.82,1.31-1.23
		C265.3,23.85,269.29,20.16,268,14.29z M259.39,15.64c-0.23,1.07-1.45,2.24-3.71,3.57c-2.35,1.33-5.15,3.36-7.87,5.33
		c-1.49,1.08-3,2.18-4.42,3.14c-0.01-2.78,0.21-7.21,0.35-9.96c0.17-3.33,0.26-5.19,0.21-6.04c0.05-1.1,0.29-2.45,1.1-2.91
		c0.64-0.36,2.45-0.68,7.33,1.3c0.45,0.19,0.91,0.37,1.39,0.56c1.95,0.77,3.97,1.56,4.84,2.69
		C259.28,14.21,259.54,14.96,259.39,15.64z"/>
	<path class="st0" d="M329.18,76.93c-0.38,0-0.77-0.05-1.14-0.13c-0.76-0.12-1.53-0.24-2.3-0.35c-1.52-0.23-3.1-0.46-4.64-0.78
		c-1.58-0.36-2.55-2.2-2.38-3.56c0.16-2.27,0.39-4.54,0.62-6.73c0.23-2.18,0.46-4.44,0.61-6.68c0.41-4.92,0.72-9.91,0.93-14.84
		c0.07-1.62,0.13-3.24,0.18-4.86c-0.03,0.07-0.05,0.13-0.08,0.2c-0.72,1.88-1.4,3.66-2.09,5.73c-0.73,2.13-1.39,4.3-2.02,6.4
		c-0.89,2.96-1.81,6.02-2.97,9.03c-0.94,2.51-2.27,4.88-3.56,7.19c-0.47,0.84-0.94,1.68-1.38,2.51c-0.9,1.53-1.79,3.05-2.95,4.33
		l-0.12,0.12c-1.09,1-2.79,1.64-4.34,1.66c-3.02,0.17-6.38,0.2-10.26,0.09c-2.74-0.12-4.31-1.77-4.72-4.91
		c-0.11-1.13-0.23-2.2-0.35-3.27c-0.26-2.23-0.52-4.53-0.59-6.88c0-2.49,0.09-5.04,0.19-7.49c0.04-1.19,0.09-2.37,0.12-3.53v-8.24
		c0-0.53,0.02-1.05,0.05-1.58c0.04-0.96,0.08-1.86-0.03-2.71c-0.52-5.62-1.04-11.36-1.66-17c-0.21-2.52-0.41-5.09-0.72-7.61
		l-0.61-3.9c-0.39-2.14,0.04-4.95,4.37-5.98c3.16-0.75,5.61,0.49,7.57,1.49l0.14,0.08c0.85,0.52,1.41,1.45,1.41,2.36l-0.01,0.2
		c-0.21,1.76-0.44,3.51-0.67,5.26c-0.42,3.23-0.85,6.57-1.19,9.87c-0.2,1.94-0.22,3.87-0.24,5.92c-0.01,1.03-0.02,2.06-0.06,3.1
		c-0.07,1.98-0.16,3.97-0.25,5.95c-0.18,3.87-0.37,7.88-0.37,11.8c0.07,2.01,0.5,4.22,0.91,6.35c0.18,0.94,0.36,1.87,0.52,2.79
		c0.1,0.61,0.14,1.2,0.17,1.77c0.04,0.63,0.07,1.22,0.19,1.69c0.06,0.18,0.12,0.37,0.18,0.57c0.14,0.45,0.39,1.25,0.6,1.59
		c3.02,1.11,4.11,0.7,4.96-0.39c0.31-0.37,0.58-0.7,0.86-1.02c1.36-1.6,2.64-3.1,3.5-4.8c1.52-2.95,2.74-6.22,3.84-9.31
		c1.39-3.61,2.73-7.45,4.01-11.44c0.56-1.73,1.09-3.49,1.59-5.2c0.51-1.72,1.04-3.5,1.61-5.26c0.55-1.98,1.19-4.04,1.8-6.05
		c0.61-1.98,1.23-4.03,1.8-6.04c0.22-0.97,0.34-2.04,0.47-3.17c0.13-1.15,0.26-2.34,0.53-3.58c0.24-1.24,1.73-3.19,3.4-3.45
		c0.37-0.05,3.25-0.38,4.74,0.98c1.97,1.8,1.62,4.27,1.36,6.08c-0.08,0.56-0.16,1.1-0.16,1.52c0,1.78,0.05,3.57,0.1,5.3
		c0.05,1.72,0.1,3.5,0.1,5.25l-0.01,0.3c-0.1,5.24-0.21,10.67-0.41,15.96c-0.11,1.71-0.3,3.38-0.48,5
		c-0.18,1.58-0.35,3.07-0.45,4.56c-0.47,6.8-0.13,12.3,1.09,17.3c0.04,0.16,0.07,0.34,0.11,0.55c0.06,0.31,0.2,1.1,0.31,1.4
		c0.01,0.01,0.02,0.03,0.04,0.05c0.12,0.08,0.22,0.15,0.33,0.23c2.54,1.59,1.95,3.86,1.64,5.09l-0.07,0.25
		C332.25,76.19,330.71,76.93,329.18,76.93z"/>
	<path class="st0" d="M396.44,76.84c-0.87,0-1.8-0.11-2.72-0.22c-0.62-0.07-1.2-0.14-1.68-0.16c-8.06-0.21-17.31-3.17-22.97-7.38
		l-0.23-0.16c-7.42-5.39-8.56-6.22-12.74-12.66c-8.14-12.78-4.06-31.2,8.73-39.43c6.61-4.11,13.63-7.6,20.42-10.99l1.99-0.99
		c2.07-1.09,4.96-1.66,7.87-1.54l0,0c2.24,0,4.23,3.08,4.38,4.68c0.11,2.17-0.31,5.54-0.66,7.03l-0.04,0.15
		c-1.04,3.08-5.15,2.45-8.14,1.98c-1.31-0.2-2.8-0.43-3.63-0.33c-8.56,0.91-14.86,2.37-19.96,6.85c-7.57,6.56-8.73,17.94-2.77,27.05
		c4.67,7.26,9.69,11.4,16.28,13.43c5.74,1.64,10.44,1.55,14.73-0.3c2.41-1.07,4.02-0.58,4.94,0.02c1.44,0.93,2.11,2.76,1.83,5.01
		l-0.02,0.19c-0.23,2.29-0.51,5.14-2.47,6.8C398.78,76.62,397.66,76.84,396.44,76.84z"/>
	<path class="st0" d="M505.75,39.59c-0.53-4.46-3.38-9.6-4.58-11.62c-1.56-2.54-3.44-4.83-5.25-6.94c-0.52-0.59-1.03-1.18-1.54-1.78
		c-1.97-2.3-4.01-4.67-6.39-6.69c-2.23-1.96-4.74-3.5-7.17-4.99c-0.76-0.47-1.52-0.93-2.27-1.41c-4.19-2.66-9.06-3.29-12.38-3.52
		c-4.8-0.3-9.01,1.25-13.09,2.75l-0.86,0.31c-0.6,0.24-1.21,0.49-1.82,0.74c-0.84,0.35-1.71,0.71-2.58,1.03l0,0
		c-0.72,0.27-2.4,1.29-2.74,1.49c-2.63,1.59-3.8,2.38-6.03,4.22c-3.76,3.12-7.05,6.15-10.08,9.28c-2.68,2.79-4.65,6.21-6.41,11.13
		c-1.01,3.08-1.07,7.51-0.14,11.01c0.13,0.52,0.25,1.03,0.37,1.53c0.54,2.33,1.1,4.74,2.86,7.27c1.34,2.07,1.84,2.66,3.32,4.43
		l3.57,3.99c0.96,1.07,2.22,2.13,3.43,3.14c0.62,0.52,1.23,1.03,1.77,1.52c1.26,1.15,2.29,1.89,3.48,2.74l0.87,0.63
		c1,0.68,1.73,1.15,2.59,1.63c0.52,0.27,1.15,0.5,1.76,0.73c0.4,0.15,0.8,0.3,1.07,0.42c1.16,0.58,2.36,1.17,3.78,1.71
		c0.34,0.11,0.7,0.23,1.06,0.34c0.83,0.26,1.69,0.53,2.41,0.83c1.07,0.44,2.18,0.83,3.69,1.29c1.59,0.5,3.22,0.74,4.86,0.74
		c2.75,0,5.53-0.7,8.21-2.09c0.54-0.25,1.05-0.52,1.56-0.79c0.45-0.24,0.91-0.48,1.36-0.69c0.93-0.41,1.86-0.8,2.79-1.18
		c2.08-0.87,4.24-1.76,6.24-2.85c1.94-1.04,3.54-2.4,5.1-3.72c0.44-0.37,0.88-0.74,1.35-1.13c1.72-1.47,3.33-3.13,4.89-4.74
		l0.64-0.67c1.29-1.33,2.63-2.71,3.68-4.28c0.29-0.42,0.61-0.86,0.93-1.29c0.86-1.18,1.75-2.39,2.44-3.81l0.48-1.09
		c1.31-2.99,2.26-5.15,2.75-9.27l0.02-0.2V39.59z M497.21,42.62c-0.11,0.43-0.21,0.83-0.26,1.13c-0.66,2.84-1.06,3.77-2.63,6.19
		c-1.58,2.28-2.95,3.97-4.26,5.24c-3.9,4.08-9.02,7.29-14.8,9.28c-3.92,1.33-7.58,2.25-10.85,2.73c-1.7,0.22-3.96-0.34-6.13-0.97
		c-6.23-1.82-11.32-3.49-15.48-6.86c-0.68-0.57-1.38-1.13-2.07-1.7c-1.99-1.61-4.04-3.27-5.58-5.07c-2.78-3.16-5.29-6.32-5.56-10.18
		c-0.03-0.43-0.07-0.88-0.12-1.33c-0.11-1.05-0.22-2.14-0.1-3.05c0.17-1.3,0.68-2.89,1.37-4.23c1.02-1.93,2.43-3.99,4.45-6.48
		l0.72-0.88c1.91-2.33,3.71-4.53,5.83-6.39c0.9-0.73,1.88-1.44,2.78-2.01l1.26-0.77c2.04-1.25,3.97-2.43,6.13-3.53
		c2.39-1.35,5.14-1.59,7.15-1.77l0.4-0.03c4.68-0.14,8.07,0.89,11.66,1.99c0.52,0.16,1.03,0.32,1.51,0.46
		c4.1,1.3,8.74,3.05,12.12,6.12c3.14,3.05,6.08,6.65,8.42,9.53c2.26,2.83,4.04,7.82,4.06,7.87l0.02,0.05
		C497.94,39.77,497.57,41.22,497.21,42.62z"/>
	<path class="st0" d="M568.86,62.41c-0.07-0.58-0.18-1.38-0.25-2.84c0-0.37-0.08-0.78-0.17-1.25c-0.05-0.24-0.1-0.5-0.14-0.76
		l0.1-1.82v-0.13c0-1.31-0.37-2.44-0.7-3.44l-0.04-0.11c-0.2-0.49-0.4-0.99-0.6-1.48c-2.68-6.68-5.72-14.25-16.56-15.23
		c-0.01,0-0.03,0-0.04,0c3.1-2.61,5.58-6.34,7-10.55v-0.01c0.66-1.98,0.14-4.14-0.37-6.24c-0.19-0.8-0.38-1.56-0.49-2.27l-0.03-0.21
		l-0.09-0.2c-1.09-2.53-3.29-4.45-5.24-6.15c-0.41-0.36-0.81-0.71-1.2-1.06c-1.52-1.38-3.84-3.3-6.51-4.03
		c-1.87-0.53-3.8-0.57-5.66-0.62c-1.14-0.05-2.22-0.08-3.22-0.21c-6.13-0.81-8.42-1.11-10.08,0.27c-1.46,1.21-1.35,3.03-1.2,5.77
		l0.33,1.62c0.27,1.75,0.57,3.51,0.88,5.28c0.61,3.55,1.24,7.23,1.59,10.79c0.4,3.84,0.3,7.81,0.2,11.64
		c-0.3,10.04-0.62,20.43-0.83,30.73c-0.12,1.17,0.72,2.18,0.99,2.47c0.61,0.66,1.33,1.03,2.09,1.07c1.39,0.14,2.78,0.3,4.17,0.46
		c3.76,0.44,7.64,0.89,11.54,0.89c0.53,0,1.05-0.01,1.58-0.03c5.82-0.2,11.59-1.48,16.54-2.72c2.24-0.64,5.93-3.6,6.24-5.98
		C569.04,64.04,569,63.58,568.86,62.41z M534.9,17.04c-0.31-2.13,0.13-2.85,3.56-3.53c0.61-0.1,1.19-0.24,1.78-0.37
		c3.33-0.75,5.53-1.25,10.14,5.05c0.12,0.17,0.14,0.74,0.14,0.98c0.01,0.25,0.01,0.49,0.06,0.74c0.93,7.61-5.38,11.11-11.23,11.83
		c-0.66-0.27-2.03-1.62-2.33-2.45c-0.83-2.98-1.27-6.2-1.7-9.31C535.18,19,535.04,18.01,534.9,17.04z M560.89,62.57
		c-1.32,2.2-4.68,3.49-11.23,4.32l-2.05,0.14c-5.2,0.36-5.66,0.39-8.34-0.86c-0.81-0.7-2.18-4.59-2.28-6.48
		c-0.2-4.64,0.1-9.51,0.88-14.1c0.42-0.47,2.17-1.35,3.59-1.56c7.1-1.24,14.73,2.28,17.76,8.21
		C561.61,56.95,562.17,60.43,560.89,62.57z"/>
	<path class="st0" d="M653.46,66.13c-0.82-2.17-1.64-4.46-2.57-7.2c-0.31-0.9-0.55-1.88-0.78-2.84c-0.14-0.57-0.28-1.13-0.43-1.7
		c-0.18-0.62-0.38-1.23-0.58-1.85c-0.38-1.17-0.74-2.27-0.93-3.34l-0.02-0.09c-0.7-3.01-1.22-6.1-1.71-9.08
		c0-0.86-0.01-1.23-0.11-2.18c-0.24-2.57-0.69-4.48-1.17-6.5c-0.17-0.73-0.35-1.48-0.52-2.27l-0.05-0.18
		c-0.93-2.83-2.08-5.62-3.51-8.52c-1-2-2.16-3.93-3.29-5.8c-0.68-1.13-1.37-2.26-2.03-3.43l-0.57-0.99
		c-0.96-1.65-1.87-3.21-2.5-4.87c-0.97-2.64-3.42-4.35-6.24-4.35c-2.09,0-3.86,2.28-4.75,3.67c-0.7,1.15-1.17,2.33-1.62,3.47
		c-0.27,0.69-0.53,1.34-0.83,1.95l-0.05,0.11c-0.72,1.77-1.5,3.58-2.26,5.33c-0.77,1.77-1.56,3.6-2.28,5.38
		c-0.71,1.67-1.32,3.36-1.92,4.99c-0.29,0.81-0.59,1.61-0.9,2.44c-0.85,2.32-1.63,4.71-2.39,7.02l-0.53,1.63
		c-0.61,1.96-1.25,3.98-1.77,5.99c-0.52,1.88-0.93,3.77-1.35,5.65c-0.08,0.24-0.16,0.48-0.25,0.72c-0.26,0.74-0.53,1.51-0.7,2.28
		c-0.12,0.54-0.18,1.07-0.23,1.54c-0.05,0.42-0.09,0.82-0.15,1.08c-0.29,0.99-0.62,1.96-0.94,2.92c-0.48,1.42-0.97,2.89-1.33,4.31
		c-0.74,2.41-1.27,4.83-1.8,7.23c-0.05,0.23-0.11,0.46-0.17,0.7c-0.27,1.04-0.61,2.33,0.13,3.51c1.13,1.66,2.76,1.99,5,1.99
		c4.81,0,5.82-2.73,5.82-5.03v-3.85c-0.04-0.71-0.11-1.43-0.18-2.15c-0.13-1.38-0.26-2.68-0.13-4c0.05-1.07,0.48-4.2,1.88-6.01
		l1.17-0.98c1.76-1.47,1.76-1.47,2.39-1.87c0.41-0.26,1.03-0.67,2.31-1.55c3.8-1.21,3.94-1.25,9.54-2.8l0.27-0.1
		c1.58-0.68,3.44-1.02,5.06-1.26c1.7-0.26,3.52-0.26,5.43-0.26c0.05,0,0.12,0.02,0.2,0.04c0.34,1,0.46,2.06,0.53,2.87
		c0.41,3.07,0.72,6.17,0.92,9.26c0.05,0.55,0.01,1.14-0.04,1.77c-0.04,0.47-0.07,0.93-0.07,1.38c0,0.81-0.02,1.6-0.05,2.39
		c-0.05,1.6-0.09,3.25,0.05,4.86c0.1,1.73,0.68,2.94,1.76,3.7c1.02,0.72,2.35,0.93,3.93,0.63c0.56-0.1,1.17-0.14,1.81-0.18
		c0.35-0.02,0.7-0.04,1.05-0.07c2.37-0.11,3.54-1.06,4.11-1.83C653.89,68.79,654,67.47,653.46,66.13z M636.57,38.11
		c-0.35-0.08-0.67-0.08-0.94-0.03c-1.77,0.08-2.85,0.08-4.73,0.08c-0.74,0-1.48-0.02-2.23-0.05c-0.82-0.02-1.65-0.04-2.6-0.05
		l-7.44,0.28l-0.14,0.01c-0.62,0.06-1.21,0.12-1.71,0.12c0.18-0.7,0.43-1.42,0.67-2.08c0.15-0.42,0.29-0.82,0.4-1.19l0.01-0.04
		c0.51-1.77,0.82-2.79,1.42-4.53l0.05-0.19c0.06-0.28,0.07-0.31,0.18-0.56c0.3-0.56,0.39-0.91,0.45-1.24
		c0.02-0.11,0.03-0.17,0.08-0.3c0.3-0.6,0.55-1.45,0.78-2.29l0.02-0.08c1.08-3.41,1.15-3.59,1.36-4.18c0.1-0.26,0.22-0.59,0.45-1.24
		c0.62-1.29,1.18-2.24,1.88-3.44l0.28-0.51c0.07-0.15,0.21-0.44,0.36-0.73c0.1,0.08,0.2,0.16,0.29,0.24
		c0.46,0.42,0.93,0.82,1.4,1.23c0.91,0.79,1.77,1.53,2.49,2.3c0.11,0.13,0.27,0.48,0.4,0.79c0.08,0.19,0.16,0.38,0.26,0.59l0.7,1.44
		c1.22,2.52,2.47,5.12,3.49,7.68c0.2,0.51,0.5,1.06,0.81,1.66c0.38,0.72,0.81,1.54,1.01,2.18l0.06,0.16
		c0.23,0.54,0.43,0.95,0.61,1.32c0.37,0.77,0.6,1.23,0.84,2.41l0.05,0.19c0,0.02,0.01,0.03,0.01,0.05
		C636.83,38.15,636.58,38.11,636.57,38.11z"/>
	<path class="st0" d="M682.93,74.97c-1.56,0-2.85-0.15-3.83-1.05c-1.32-1.22-1.27-2.94-1.15-6.72l0.06-1.75
		c0.12-1.31,0.3-2.79,0.5-4.34c0.33-2.61,0.71-5.58,0.84-8.48c0.22-5.96,0.18-11.68-0.1-16.98c-0.27-5.54-0.74-11.14-1.18-16.55
		c-0.23-2.82-0.47-5.64-0.68-8.47c-0.05-0.42-0.18-0.94-0.31-1.5c-0.1-0.4-0.2-0.8-0.28-1.22c-0.38-1.67,0.07-3.21,1.25-4.16
		c1.18-0.96,2.92-1.19,4.79-0.65c0.36,0.08,0.72,0.14,1.09,0.2c0.91,0.16,1.93,0.33,2.91,0.74l0.2,0.1c1.22,0.66,2.1,2.44,1.88,3.8
		c-0.21,1.43-0.55,2.9-0.88,4.33c-0.33,1.42-0.67,2.9-0.87,4.32c-0.2,1.86-0.16,3.77-0.12,5.78c0.02,0.82,0.03,1.64,0.03,2.46
		c0,0.71,0,1.4-0.03,2.08c2.22-0.75,4.31-2.1,6.51-4.19c4.48-4.26,7.04-9.34,7.62-15.1c0.02-0.17,0.02-0.34,0.02-0.51
		c0.02-0.95,0.04-2.54,1.9-3.67c1.32-0.8,3.28-0.99,5.1-0.48c1.62,0.45,2.81,1.35,3.34,2.53c0.42,1.03,0.45,2.2,0.1,3.63
		c-0.23,0.78-0.42,1.48-0.61,2.19c-0.48,1.79-0.98,3.65-1.76,5.44c-2.49,6.08-6.83,10.68-12.9,13.65c-1.48,0.7-3.05,1.31-4.57,1.9
		c-0.28,0.11-0.55,0.21-0.83,0.32c0.63,0.31,1.27,0.61,1.89,0.91c2.51,1.2,5.11,2.45,7.48,4.07c6.03,3.97,13.56,8.94,17.75,16.56
		c0.33,0.62,0.66,1.23,0.99,1.83c1.68,3.06,3.41,6.22,4.24,9.82c0.16,0.77,0.53,1.54,0.91,2.35c0.27,0.57,0.55,1.16,0.78,1.78
		c0.41,1,0.39,1.96-0.08,2.79c-0.75,1.31-2.37,1.68-2.98,1.82l-0.18,0.03c-1.42,0.2-2.82,0.3-4.18,0.39
		c-1.53,0.09-2.83-0.26-3.77-1.01c-0.83-0.66-1.31-1.59-1.38-2.67c-0.06-0.78,0-1.55,0.05-2.23c0.05-0.58,0.09-1.13,0.05-1.6
		c-0.21-2.38-0.41-4.6-0.89-6.74c-0.36-1.43-0.89-2.89-1.45-4.44c-0.19-0.51-0.37-1.03-0.55-1.54c-1.05-2.44-3.06-4.23-5.56-6.33
		c-3.59-2.95-7.94-5.52-13.69-8.09c-0.98-0.45-2.08-0.75-3.25-1.04c-0.07,3.87-0.03,7.32,0.13,10.53c0.2,4.02,0.62,8.01,1.22,11.88
		c0.26,1.45,0.69,2.89,1.15,4.41c0.39,1.28,0.79,2.59,1.08,3.96c0.26,0.76,0.54,2.07-0.09,3.12c-0.36,0.6-0.95,1.02-1.67,1.18
		l-0.17,0.03c-1.49,0.22-4.09,0.59-4.76,0.59C683.65,74.96,683.28,74.97,682.93,74.97z"/>
	<path class="st0" d="M786.24,76.93c-0.38,0-0.77-0.05-1.14-0.13c-0.76-0.12-1.53-0.24-2.31-0.36c-1.52-0.23-3.09-0.46-4.64-0.78
		c-1.58-0.36-2.55-2.2-2.38-3.56c0.16-2.27,0.39-4.55,0.62-6.75c0.23-2.18,0.46-4.43,0.61-6.65c0.41-4.93,0.72-9.91,0.93-14.84
		c0.07-1.62,0.13-3.24,0.18-4.86c-0.03,0.07-0.05,0.14-0.08,0.21c-0.72,1.88-1.4,3.65-2.08,5.72c-0.73,2.12-1.39,4.3-2.02,6.4
		c-0.89,2.96-1.81,6.02-2.97,9.03c-0.94,2.51-2.27,4.88-3.56,7.19c-0.47,0.84-0.94,1.68-1.38,2.51c-0.9,1.54-1.79,3.06-2.95,4.33
		l-0.12,0.12c-1.09,1-2.79,1.64-4.34,1.66c-3.02,0.17-6.38,0.2-10.26,0.09c-2.74-0.12-4.31-1.77-4.72-4.9
		c-0.11-1.12-0.23-2.19-0.35-3.26c-0.26-2.23-0.52-4.54-0.59-6.89c0-2.5,0.09-5.05,0.19-7.51c0.04-1.18,0.09-2.36,0.12-3.51v-8.24
		c0-0.53,0.02-1.05,0.05-1.58c0.04-0.95,0.09-1.86-0.03-2.71c-0.52-5.62-1.04-11.36-1.66-17c-0.2-2.52-0.41-5.07-0.72-7.61
		l-0.61-3.9c-0.39-2.14,0.04-4.95,4.37-5.98c3.16-0.75,5.61,0.49,7.58,1.49l0.14,0.08c0.85,0.52,1.41,1.45,1.41,2.36l-0.01,0.2
		c-0.21,1.76-0.44,3.51-0.67,5.26c-0.42,3.23-0.85,6.57-1.19,9.87c-0.2,1.94-0.22,3.87-0.24,5.92c-0.01,1.03-0.02,2.06-0.06,3.11
		c-0.07,1.99-0.16,3.98-0.25,5.97c-0.18,3.86-0.37,7.86-0.37,11.77c0.07,2.01,0.49,4.21,0.91,6.34c0.18,0.94,0.36,1.88,0.52,2.8
		c0.1,0.61,0.14,1.2,0.17,1.77c0.04,0.63,0.07,1.22,0.2,1.69c0.06,0.18,0.12,0.37,0.18,0.57c0.14,0.45,0.4,1.25,0.6,1.6
		c3.01,1.11,4.11,0.7,4.96-0.39c0.31-0.37,0.59-0.7,0.86-1.02c1.36-1.6,2.64-3.1,3.5-4.8c1.52-2.96,2.75-6.22,3.84-9.31
		c1.39-3.62,2.74-7.46,4.01-11.44c0.56-1.73,1.09-3.49,1.59-5.19c0.51-1.72,1.04-3.51,1.62-5.27c0.55-1.98,1.19-4.05,1.8-6.06
		c0.61-1.98,1.23-4.02,1.79-6.02c0.22-0.97,0.34-2.04,0.47-3.17c0.13-1.15,0.26-2.34,0.53-3.58c0.24-1.24,1.73-3.19,3.39-3.45
		c0.37-0.05,3.25-0.38,4.74,0.98c1.97,1.79,1.62,4.27,1.36,6.08c-0.08,0.56-0.16,1.1-0.16,1.52c0,1.78,0.05,3.57,0.1,5.3
		c0.05,1.72,0.1,3.5,0.1,5.25l-0.01,0.3c-0.1,5.24-0.21,10.67-0.41,15.96c-0.11,1.71-0.3,3.38-0.48,5
		c-0.18,1.58-0.35,3.07-0.45,4.56c-0.47,6.8-0.13,12.3,1.09,17.3c0.04,0.16,0.07,0.34,0.11,0.55c0.06,0.31,0.2,1.1,0.31,1.4
		c0.01,0.01,0.02,0.03,0.04,0.05c0.12,0.08,0.22,0.15,0.33,0.23c2.54,1.59,1.95,3.86,1.64,5.09l-0.07,0.25
		C789.31,76.19,787.77,76.93,786.24,76.93z"/>
</g>
</svg>
